# AST/ASF file generated using VICON BodyLanguage
# -----------------------------------------------
:version 1.10
:name VICON
:units
  mass 1.0
  length 0.45
  angle deg
:documentation
   .ast/.asf automatically generated from VICON data using
   VICON BodyBuilder and BodyLanguage model FoxedUp or BRILLIANT.MOD
:root
   order TX TY TZ RX RY RZ
   axis XYZ
   position 0 0 0  
   orientation 0 0 0 
:bonedata
  begin
     id 1 
     name lhipjoint
     direction 0.643824 -0.71708 0.266994 
     length 2.52133 
     axis 0 0 0  XYZ
  end
  begin
     id 2 
     name lfemur
     direction 0.34202 -0.939693 0  
     length 7.51824  
     axis 0 0 20  XYZ
    dof rx ry rz
    limits (-160.0 20.0)
           (-70.0 70.0)
           (-60.0 70.0)
  end
  begin
     id 3 
     name ltibia
     direction 0.34202 -0.939693 0   
     length 7.3685   
     axis 0 0 20   XYZ
    dof rx
    limits (-10.0 170.0)
  end
  begin
     id 4 
     name lfoot
     direction 0.105419 -0.289636 0.951314   
     length 2.20972   
     axis -90 7.62852e-016 20   XYZ
    dof rx rz
    limits (-45.0 90.0)
           (-70.0 20.0)
  end
  begin
     id 5 
     name ltoes
     direction 1.53549e-011 -4.21833e-011 1   
     length 1.10139   
     axis -90 7.62852e-016 20   XYZ
    dof rx
    limits (-90.0 20.0)
  end
  begin
     id 6 
     name rhipjoint
     direction -0.608823 -0.743445 0.276811   
     length 2.43192  
     axis 0 0 0  XYZ 
  end
  begin
     id 7 
     name rfemur
     direction -0.34202 -0.939693 0   
     length 7.69715   
     axis 0 0 -20   XYZ
    dof rx ry rz
    limits (-160.0 20.0)
           (-70.0 70.0)
           (-70.0 60.0)
  end
  begin
     id 8 
     name rtibia
     direction -0.34202 -0.939693 0   
     length 7.44924   
     axis 0 0 -20   XYZ
    dof rx
    limits (-10.0 170.0)
 end
 begin
     id 9 
     name rfoot
     direction -0.103614 -0.284677 0.953007   
     length 2.22623  
     axis -90 -7.62852e-016 -20   XYZ
    dof rx rz
    limits (-45.0 90.0)
           (-20.0 70.0)
  end
  begin
     id 10 
     name rtoes
     direction -1.53537e-011 -4.22026e-011 1   
     length 1.11   
     axis -90 -7.62852e-016 -20   XYZ
    dof rx
    limits (-90.0 20.0)
  end
  begin
     id 11 
     name lowerback
     direction -0.0101212 0.99662 -0.0815298   
     length 2.08277   
     axis 0 0 0   XYZ
    dof rx ry rz
    limits (-20.0 45.0)
           (-30.0 30.0)
           (-30.0 30.0)
  end
  begin
     id 12 
     name upperback
     direction 0.024314 0.999591 -0.0150645   
     length 2.08524   
     axis 0 0 0   XYZ
    dof rx ry rz
    limits (-20.0 45.0)
           (-30.0 30.0)
           (-30.0 30.0)
  end
  begin
     id 13 
     name thorax
     direction 0.0285959 0.999323 0.0231357   
     length 2.09645   
     axis 0 0 0   XYZ
    dof rx ry rz
    limits (-20.0 45.0)
           (-30.0 30.0)
           (-30.0 30.0)
  end
  begin
     id 14 
     name lowerneck
     direction -0.065512 0.979301 0.191515   
     length 1.63798   
     axis 0 0 0   XYZ
    dof rx ry rz
    limits (-20.0 45.0)
           (-30.0 30.0)
           (-30.0 30.0)
  end
  begin
     id 15 
     name upperneck
     direction 0.0498479 0.98191 -0.182667   
     length 1.68731   
     axis 0 0 0   XYZ
    dof rx ry rz
    limits (-20.0 45.0)
           (-30.0 30.0)
           (-30.0 30.0)
  end
  begin
     id 16
     name head
     direction 0.0230358 0.996257 -0.0833175  
     length 1.69785  
     axis 0 0 0   XYZ
    dof rx ry rz
    limits (-20.0 45.0)
           (-30.0 30.0)
           (-30.0 30.0)
  end
  begin
     id 17 
     name lclavicle
     direction 0.967963 0.201165 -0.150269  
     length 3.63976  
     axis 0 0 0   XYZ
    dof ry rz
    limits (-20.0 10.0)
           (0.0 20.0)
  end
  begin
     id 18 
     name lhumerus
     direction 1 -4.48954e-011 -2.92837e-028   
     length 5.32462   
     axis 180 -30 -90   XYZ
    dof rx ry rz
    limits (-60.0 90.0)
           (-90.0 90.0)
           (-90.0 90.0)
  end
  begin
     id 19
     name lradius
     direction 1 -4.48958e-011 -6.39511e-027   
     length 3.48402   
     axis 180 -30 -90   XYZ
    dof rx
    limits (-10.0 170.0)
  end
  begin
     id 20
     name lwrist
     direction 1 -4.48975e-011 -1.1413e-026   
     length 1.74201   
     axis 6.88575e-015 90 90   XYZ
    dof ry
    limits (-180.0 0.0)
 end
  begin
     id 21 
     name lhand
     direction 1 -4.48899e-011 -2.28192e-026   
     length 0.572476   
     axis 1.45643e-014 90 90   XYZ
    dof rx rz
    limits (-90.0 90.0)
           (-45.0 45.0)
  end
  begin
     id 22 
     name lfingers
     direction 1 -4.49155e-011 -4.5684e-026   
     length 0.461545   
     axis 2.91283e-014 90 90   XYZ
    dof rx
    limits (0.0 90.0)
  end
  begin
     id 23
     name lthumb
     direction 0.707107 -6.34943e-011 0.707107   
     length 0.662688   
     axis -90 45 -2.25915e-014   XYZ
    dof rx rz
    limits (-45.0 45.0)
           (-45.0 45.0)
  end
  begin
     id 24 
     name rclavicle
     direction -0.964103 0.264019 -0.0282629   
     length 3.54491  
     axis 0 0 0   XYZ 
    dof ry rz
    limits (-10.0 20.0)
           (-20.0 0.0)
  end
  begin
     id 25 
     name rhumerus
     direction -1 -4.48964e-011 -2.45032e-027  
     length 5.33589   
     axis 180 30 90   XYZ
    dof rx ry rz
    limits (-90.0 60.0)
           (-90.0 90.0)
           (-90.0 90.0)
  end
  begin
     id 26 
     name rradius
     direction -1 -4.48987e-011 -1.55093e-027   
     length 3.64134   
     axis 180 30 90   XYZ
    dof rx
    limits (-10.0 170.0)
  end
  begin
     id 27 
     name rwrist
     direction -1 -4.4897e-011 -1.14128e-026   
     length 1.82067   
     axis 6.88575e-015 -90 -90   XYZ
    dof ry
    limits (-180.0 0.0)
  end
  begin
     id 28
     name rhand
     direction -1 -4.49021e-011 -2.28301e-026   
     length 0.734811   
     axis 1.45643e-014 -90 -90   XYZ
    dof rx rz
    limits (-90.0 90.0)
           (-45.0 45.0)
  end
  begin
     id 29
     name rfingers
     direction -1 -4.48862e-011 -4.56319e-026   
     length 0.592424   
     axis 2.91283e-014 -90 -90   XYZ
    dof rx
    limits (0.0 90.0)
  end
  begin
     id 30
     name rthumb
     direction -0.707107 -6.34978e-011 0.707107   
     length 0.850605   
     axis -90 -45 2.25915e-014   XYZ
    dof rx rz
    limits (-45.0 45.0)
           (-45.0 45.0)
  end
:hierarchy
  begin
    root lhipjoint rhipjoint lowerback
    lhipjoint lfemur
    lfemur ltibia
    ltibia lfoot
    lfoot ltoes
    rhipjoint rfemur
    rfemur rtibia
    rtibia rfoot
    rfoot rtoes
    lowerback upperback
    upperback thorax
    thorax lowerneck lclavicle rclavicle
    lowerneck upperneck
    upperneck head
    lclavicle lhumerus
    lhumerus lradius
    lradius lwrist
    lwrist lhand lthumb
    lhand lfingers
    rclavicle rhumerus
    rhumerus rradius
    rradius rwrist
    rwrist rhand rthumb
    rhand rfingers
  end

#!OML:ASF F:\VICON\USERDATA\INSTALL\rory3\rory3.ASF
:FULLY-SPECIFIED
:DEGREES
398
root -1.03905 17.9183 -0.0959332 3.04119 9.84722 -0.422309
lowerback 4.36389 -0.0934563 -0.179145
upperback -0.282626 -0.0895421 1.57783
thorax -2.73489 -0.0304448 1.72949
lowerneck -20.5595 -13.2008 -14.8311
upperneck 7.6679 -15.8815 14.4428
head 8.06135 -6.90421 4.85675
rclavicle -3.9906e-014 0
rhumerus 42.6171 -16.2689 -33.5195
rradius 51.1958
rwrist 39.8411
rhand -60.5955 -16.2828
rfingers 7.12502
rthumb -32.7186 -43.342
lclavicle -3.9906e-014 0
lhumerus -39.9157 11.0638 72.2088
lradius 36.4165
lwrist -3.92302
lhand -11.6762 26.4887
lfingers 7.12502
lthumb 14.369 55.9714
rfemur -10.2539 -0.921213 15.985
rtibia 27.2881
rfoot -20.1204 -13.0534
rtoes 2.2668
lfemur -5.60048 -4.6077 -14.5635
ltibia 18.9905
lfoot -11.8491 6.53525
ltoes -21.9319
399
root -1.05295 17.9196 -0.0926948 3.07961 9.59168 -0.359443
lowerback 4.17331 -0.0513833 -0.083436
upperback -0.0343006 -0.0335658 1.56155
thorax -2.37412 -0.00654565 1.65358
lowerneck -21.4967 -13.3408 -14.6127
upperneck 8.28098 -16.019 14.1527
head 8.38651 -6.93066 4.6604
rclavicle 1.11319e-014 1.78906e-014
rhumerus 42.2932 -17.6158 -33.9539
rradius 50.8504
rwrist 39.3195
rhand -60.835 -16.7816
rfingers 7.12502
rthumb -32.9464 -43.7931
lclavicle 1.11319e-014 1.78906e-014
lhumerus -39.3282 11.1276 72.3086
lradius 36.093
lwrist -4.19393
lhand -12.2852 26.3144
lfingers 7.12502
lthumb 13.7822 55.8379
rfemur -10.3862 -0.83336 15.9574
rtibia 27.3939
rfoot -20.0822 -12.9524
rtoes 2.18361
lfemur -5.46362 -4.60153 -14.6079
ltibia 18.7724
lfoot -11.7024 6.77529
ltoes -22.1871
400
root -1.06785 17.9234 -0.0880515 3.117 9.37791 -0.268913
lowerback 3.82685 -0.0786276 -0.121492
upperback 0.287814 -0.0777018 1.59508
thorax -1.84748 -0.0315975 1.70969
lowerneck -22.4118 -13.367 -14.2457
upperneck 8.78063 -16.0029 13.6948
head 8.61943 -6.89961 4.4177
rclavicle 8.24956e-015 -3.97569e-015
rhumerus 42.3939 -19.0784 -34.8592
rradius 50.414
rwrist 39.2071
rhand -60.8474 -16.9289
rfingers 7.12502
rthumb -32.9582 -43.9379
lclavicle 8.24956e-015 -3.97569e-015
lhumerus -38.8782 11.0731 72.4963
lradius 35.9893
lwrist -4.09222
lhand -12.3491 26.1284
lfingers 7.12502
lthumb 13.7206 55.656
rfemur -10.4929 -0.744417 15.8982
rtibia 27.489
rfoot -20.1037 -12.8742
rtoes 2.33134
lfemur -5.32375 -4.61187 -14.6756
ltibia 18.5519
lfoot -11.5836 6.98189
ltoes -22.1439
401
root -1.08363 17.9266 -0.0863763 3.24943 9.24596 -0.188209
lowerback 3.78892 -0.140118 -0.238591
upperback 0.289418 -0.163001 1.69415
thorax -1.82137 -0.0730234 1.88181
lowerneck -22.4031 -13.2023 -14.112
upperneck 8.72186 -15.7781 13.5243
head 8.53861 -6.8079 4.3859
rclavicle -5.41688e-015 -7.55382e-015
rhumerus 42.5397 -20.2414 -35.8184
rradius 49.875
rwrist 39.0851
rhand -61.0183 -16.959
rfingers 7.12502
rthumb -33.1207 -43.9336
lclavicle -5.41688e-015 -7.55382e-015
lhumerus -38.9397 10.9986 72.6426
lradius 36.0385
lwrist -3.9409
lhand -11.6057 26.1537
lfingers 7.12502
lthumb 14.437 55.6316
rfemur -10.6884 -0.777746 15.8571
rtibia 27.548
rfoot -20.0982 -12.8022
rtoes 2.51485
lfemur -5.32613 -4.67456 -14.7116
ltibia 18.3633
lfoot -11.4486 7.15004
ltoes -21.9292
402
root -1.09825 17.9302 -0.0865871 3.35137 9.1464 -0.0293643
lowerback 3.86012 -0.161155 -0.370862
upperback 0.304575 -0.195673 1.73361
thorax -1.84402 -0.0881 1.99885
lowerneck -22.5133 -13.0961 -14.0261
upperneck 8.74456 -15.6322 13.458
head 8.53049 -6.73782 4.37527
rclavicle -3.6477e-014 1.66979e-014
rhumerus 42.5982 -21.5167 -36.6629
rradius 49.3783
rwrist 39.0713
rhand -60.8764 -17.4192
rfingers 7.12502
rthumb -32.9858 -44.4225
lclavicle -3.6477e-014 1.66979e-014
lhumerus -38.8187 10.846 72.8268
lradius 36.0531
lwrist -3.81564
lhand -11.1679 26.4944
lfingers 7.12502
lthumb 14.8587 55.9416
rfemur -10.8192 -0.874355 15.7175
rtibia 27.564
rfoot -20.0736 -12.6775
rtoes 2.27874
lfemur -5.31988 -4.76327 -14.8321
ltibia 18.2212
lfoot -11.3237 7.24337
ltoes -21.7067
403
root -1.11108 17.9347 -0.085424 3.34258 9.07741 0.0197054
lowerback 4.02656 -0.159789 -0.378933
upperback 0.299938 -0.191739 1.80122
thorax -1.94197 -0.0851527 2.07378
lowerneck -22.5986 -13.0364 -14.0365
upperneck 8.84328 -15.5416 13.4318
head 8.5634 -6.69272 4.38164
rclavicle -1.2921e-015 5.56597e-015
rhumerus 42.4714 -22.8003 -37.3095
rradius 48.9548
rwrist 39.2796
rhand -59.8655 -16.8982
rfingers 7.12502
rthumb -32.0238 -44.0994
lclavicle -1.2921e-015 5.56597e-015
lhumerus -38.7393 10.5848 73.0326
lradius 36.006
lwrist -3.91762
lhand -11.0382 26.6089
lfingers 7.12502
lthumb 14.9837 56.0468
rfemur -10.8053 -0.953142 15.7052
rtibia 27.5516
rfoot -20.0539 -12.5407
rtoes 2.55346
lfemur -5.28387 -4.73842 -14.8473
ltibia 18.1414
lfoot -11.2632 7.2638
ltoes -21.8709
